<svg xmlns="http://www.w3.org/2000/svg" width="64" height="64" viewBox="0 0 64 64">
  <g fill="#4CAF50">
    <path d="M32 2C15.4 2 2 15.4 2 32s13.4 30 30 30 30-13.4 30-30S48.6 2 32 2zm0 56c-14.5 0-26-11.5-26-26S17.5 6 32 6s26 11.5 26 26-11.5 26-26 26z"/>
    <path d="M32 12c-11 0-20 9-20 20s9 20 20 20 20-9 20-20-9-20-20-20zm0 36c-8.8 0-16-7.2-16-16s7.2-16 16-16 16 7.2 16 16-7.2 16-16 16z"/>
    <path d="M32 16c-8.8 0-16 7.2-16 16s7.2 16 16 16 16-7.2 16-16-7.2-16-16-16zm0 28c-6.6 0-12-5.4-12-12s5.4-12 12-12 12 5.4 12 12-5.4 12-12 12z"/>
  </g>
</svg>
